<?xml version="1.0" encoding="UTF-8" standalone="no"?>
<!DOCTYPE svg PUBLIC "-//W3C//DTD SVG 1.1//EN" "http://www.w3.org/Graphics/SVG/1.1/DTD/svg11.dtd">
<svg width="100%" height="100%" viewBox="0 0 3898 4003" version="1.1" xmlns="http://www.w3.org/2000/svg" xmlns:xlink="http://www.w3.org/1999/xlink" xml:space="preserve" xmlns:serif="http://www.serif.com/" style="fill-rule:evenodd;clip-rule:evenodd;stroke-linejoin:round;stroke-miterlimit:2;">
    <g transform="matrix(4.16667,0,0,4.16667,-2534,-1215)">
        <path d="M1258.36,890.758C1257.93,892.881 1257.47,894.992 1256.99,897.092L1256.83,897.816C1255.12,905.068 1253.09,912.205 1250.73,919.2C1229.26,982.942 1181.06,1035.05 1118.38,1061.01C1044.94,1091.43 961.892,1082.75 896.24,1037.75L896.157,1037.71C895.897,1037.54 895.656,1037.37 895.389,1037.18C890.985,1034.14 886.673,1030.93 882.495,1027.57C953.599,1050.09 1032.72,1048.62 1107.01,1017.85C1171.81,991.004 1223.44,945.798 1258.36,890.758Z" style="fill:rgb(205,204,204);"/>
        <path d="M1374,837.275C1361.69,845.315 1348.77,853.393 1335.27,861.451C1331.25,863.851 1327.19,866.251 1323.08,868.651C1321.03,869.861 1318.96,871.051 1316.89,872.242C1313.28,874.329 1309.63,876.397 1305.97,878.466C1304.76,879.168 1303.54,879.852 1302.32,880.515C1298.71,882.544 1295.06,884.573 1291.39,886.583C1289.34,887.714 1287.27,888.846 1285.18,889.958C1283.12,891.09 1281.03,892.221 1278.94,893.334C1274.77,895.598 1270.55,897.821 1266.32,900.026L1266.32,900.046C1249.05,973.977 1197.59,1038.76 1122.12,1070.02C1042.98,1102.81 956.484,1090.85 890.728,1045.8C890.709,1045.8 890.67,1045.76 890.651,1045.76C888.25,1046.37 885.85,1046.97 883.47,1047.54C881.089,1048.12 878.709,1048.71 876.329,1049.27C871.588,1050.41 866.885,1051.5 862.222,1052.55C848.485,1055.65 835.158,1058.4 822.3,1060.79C814.573,1062.21 807.022,1063.52 799.646,1064.67C796.759,1065.14 793.89,1065.57 791.062,1065.98C788.311,1066.39 785.597,1066.78 782.905,1067.13C781.422,1067.34 779.959,1067.52 778.515,1067.71C776.896,1067.91 775.295,1068.12 773.695,1068.3C771.451,1068.57 769.208,1068.85 767.002,1069.08C766.789,1069.12 766.573,1069.14 766.358,1069.16C860.875,1179.71 1019.22,1222.33 1160.89,1163.63C1296.23,1107.58 1376.93,975.4 1374,837.275Z" style="fill:rgb(4,142,198);fill-rule:nonzero;"/>
        <path d="M1347.71,712.587C1358.63,738.959 1366.05,765.896 1370.14,792.903C1372.42,807.695 1373.69,822.524 1374.01,837.261L1374.01,837.279C1363.52,844.119 1352.59,850.986 1341.25,857.862C1325.39,867.451 1308.75,877.046 1291.39,886.579C1283.15,891.115 1274.8,895.587 1266.32,900.03C1266.33,900.003 1266.34,899.996 1266.34,899.979C1268.81,889.472 1270.56,878.777 1271.6,867.959C1272.11,862.782 1272.46,857.593 1272.62,852.372C1273.45,826.45 1270.14,800.048 1262.26,774.146C1280.58,760.033 1296.32,746.333 1309.13,733.316C1315.86,726.517 1321.79,719.88 1326.85,713.477C1332.03,706.959 1336.31,700.667 1339.66,694.633C1342.49,700.493 1345.18,706.494 1347.71,712.587Z" style="fill:rgb(16,117,188);fill-rule:nonzero;"/>
        <path d="M890.642,1045.76C881.043,1048.17 871.552,1050.45 862.226,1052.56C840.231,1057.53 819.332,1061.59 799.637,1064.68C788.101,1066.5 777,1067.99 766.35,1069.15C756.479,1057.61 747.318,1045.33 738.94,1032.35C735.592,1027.17 732.365,1021.87 729.283,1016.48C736.244,1014.78 743.317,1012.99 750.476,1011.1C769.527,1006.1 789.216,1000.46 809.458,994.208C816.552,992.009 823.704,989.743 830.921,987.387C837.863,997.057 845.451,1006.1 853.602,1014.51C854.957,1015.89 856.31,1017.27 857.691,1018.62C867.914,1028.66 878.956,1037.73 890.642,1045.76Z" style="fill:rgb(16,117,188);fill-rule:nonzero;"/>
        <path d="M1488.46,647.911C1476.07,618 1415.93,611.229 1328.91,624.518C1321.51,625.629 1313.93,626.897 1306.16,628.321C1314.04,630.039 1320.91,632.322 1326.71,635.209C1336.23,639.911 1342.84,646.214 1346.1,654.117C1350.76,665.375 1348.33,679.112 1339.68,694.623L1339.66,694.644C1339.25,695.404 1338.8,696.146 1338.35,696.906C1337.59,698.233 1336.77,699.56 1335.9,700.907C1335.27,701.882 1334.63,702.876 1333.95,703.872C1332.99,705.276 1331.99,706.701 1330.94,708.125C1330.74,708.379 1330.57,708.634 1330.37,708.907C1329.85,709.609 1329.32,710.311 1328.75,711.034C1328.44,711.462 1328.11,711.872 1327.78,712.302C1327.06,713.238 1326.3,714.194 1325.52,715.15C1325.28,715.443 1325.03,715.755 1324.79,716.047C1323.51,717.609 1322.18,719.189 1320.79,720.77C1319.21,722.604 1317.55,724.458 1315.84,726.311C1315.25,726.955 1314.65,727.598 1314.02,728.242C1310.96,731.539 1307.66,734.876 1304.19,738.233C1302.51,739.892 1300.77,741.55 1298.98,743.208C1297.46,744.652 1295.9,746.076 1294.29,747.521C1284.73,756.184 1274.02,765.081 1262.26,774.155C1238.8,792.222 1211.18,810.954 1180.05,829.861C1163.62,839.831 1146.22,849.861 1127.96,859.852C1123.08,862.505 1118.14,865.179 1113.15,867.832C1095.99,876.944 1078.14,886.037 1059.66,894.992C1028.58,910.075 995.762,924.846 961.596,939.011C960.133,939.617 958.669,940.221 957.225,940.807C945.773,945.529 934.396,950.075 923.099,954.465C891.627,966.699 860.778,977.685 830.924,987.382C827.49,988.494 824.077,989.606 820.662,990.679C788.817,1000.81 758.183,1009.43 729.287,1016.47L729.266,1016.49C708.74,1021.49 689.111,1025.68 670.477,1029.06C688.447,1033.04 711.608,1034.07 738.925,1032.36L738.945,1032.36C771.725,1030.31 810.535,1024.26 853.597,1014.5C927.489,997.782 1013.91,970.094 1103.92,932.808C1107,931.52 1110.08,930.251 1113.15,928.963C1170.96,904.651 1224.79,878.641 1272.62,852.378C1292.03,841.725 1310.47,831.012 1327.78,820.358C1342.76,811.149 1356.91,801.979 1370.14,792.906C1370.16,792.906 1370.16,792.906 1370.18,792.886C1455.11,734.663 1502.08,680.77 1488.46,647.911Z" style="fill:url(#_Linear1);"/>
        <path d="M1080.59,499.349L1080.59,811.14C1067.11,818.201 1053.32,825.152 1039.41,831.907C1010.92,845.721 981.111,859.104 950.852,871.657C949.572,872.179 948.312,872.701 947.051,873.205L946.853,873.295C938.424,876.771 929.724,880.267 920.954,883.706L920.954,499.349L1080.59,499.349Z" style="fill:rgb(0,149,218);fill-rule:nonzero;"/>
        <path d="M1293.48,337.339L1293.48,648.553L1274.1,673.679C1273.65,674.272 1273.14,674.885 1272.66,675.498L1271.95,676.362C1271.03,677.479 1270.08,678.614 1269.09,679.73L1268.87,679.982C1267.74,681.315 1266.5,682.702 1265.18,684.125L1264.95,684.378C1264.64,684.701 1264.35,685.025 1264.05,685.333L1263.54,685.872C1261.26,688.321 1258.66,690.951 1255.81,693.708L1255.53,693.977C1254.27,695.238 1252.95,696.48 1251.6,697.742L1251.26,698.065C1250.07,699.2 1248.84,700.299 1247.53,701.488C1239.5,708.765 1230.28,716.419 1220.15,724.235C1199.53,740.122 1175.09,756.674 1147.57,773.388C1143.05,776.125 1138.45,778.882 1133.77,781.637L1133.77,337.339L1293.48,337.339Z" style="fill:rgb(167,207,56);fill-rule:nonzero;"/>
        <path d="M867.784,665.232L867.784,903.501C856.059,907.643 844.406,911.57 832.897,915.316L831.474,915.784C828.88,916.631 826.304,917.46 823.603,918.306C795.325,927.293 767.75,935.092 741.634,941.45L738.05,942.333C727.838,944.782 717.823,947.015 708.115,949.015L708.115,665.232L867.784,665.232Z" style="fill:rgb(251,220,65);fill-rule:nonzero;"/>
        <path d="M867.783,853.042L867.783,933.509C851.354,939.421 835.003,945.021 818.906,950.251L817.364,950.757C814.554,951.676 811.763,952.573 808.836,953.489C778.203,963.227 748.33,971.675 720.037,978.563L716.155,979.52C713.462,980.163 710.789,980.807 708.115,981.411L708.115,853.042L867.783,853.042Z" style="fill:rgb(250,197,66);fill-rule:nonzero;"/>
        <path d="M1080.58,719.696L1080.58,840.846C1067.98,847.383 1055.27,853.745 1042.63,859.891C1011.76,874.855 979.47,889.354 946.689,902.954C945.304,903.519 943.938,904.085 942.572,904.631L942.358,904.729C935.353,907.617 928.192,910.504 920.954,913.372L920.954,719.696L1080.58,719.696Z" style="fill:rgb(42,126,194);fill-rule:nonzero;"/>
        <path d="M1293.48,545.063L1293.48,692.672C1292.81,693.473 1292.13,694.252 1291.45,695.033L1291.21,695.307C1289.98,696.751 1288.64,698.252 1287.21,699.794L1286.96,700.067C1286.63,700.419 1286.32,700.769 1285.98,701.103L1285.44,701.687C1282.96,704.34 1280.15,707.188 1277.07,710.175L1276.75,710.468C1275.39,711.833 1273.96,713.18 1272.5,714.544L1272.11,714.896C1270.84,716.125 1269.51,717.315 1268.09,718.604C1259.39,726.486 1249.4,734.779 1238.43,743.247C1216.09,760.458 1189.62,778.389 1159.8,796.496C1151.37,801.607 1142.67,806.739 1133.77,811.852L1133.77,545.063L1293.48,545.063Z" style="fill:rgb(136,197,64);fill-rule:nonzero;"/>
    </g>
    <defs>
        <linearGradient id="_Linear1" x1="0" y1="0" x2="1" y2="0" gradientUnits="userSpaceOnUse" gradientTransform="matrix(820.312,0,0,820.312,670.477,825.589)"><stop offset="0" style="stop-color:rgb(251,169,24);stop-opacity:1"/><stop offset="0.5" style="stop-color:rgb(251,171,24);stop-opacity:1"/><stop offset="1" style="stop-color:rgb(254,203,6);stop-opacity:1"/></linearGradient>
    </defs>
</svg>
