<svg id="Layer_1" height="512" viewBox="0 0 512 512" width="512" xmlns="http://www.w3.org/2000/svg" xmlns:xlink="http://www.w3.org/1999/xlink" data-name="Layer 1"><linearGradient id="GradientFill_1" gradientUnits="userSpaceOnUse" x1="6.302" x2="505.812" y1="262.256" y2="249.91"><stop offset="0" stop-color="#58c8dd"/><stop offset="1" stop-color="#53a7dd"/></linearGradient><path d="m256.083.083c141.377 0 256 114.587 256 256.035 0 141.377-114.623 255.964-256 255.964s-255.999-114.582-255.999-255.964c0-141.448 114.623-256.035 255.999-256.035zm41.959 113.376a59.338 59.338 0 1 0 17.367 41.941 59.134 59.134 0 0 0 -17.367-41.944zm-122.485 302.623v-89.234a7.7 7.7 0 1 1 15.391 0v89.234h130.271v-89.234a7.7 7.7 0 1 1 15.391 0v89.234h41.99a13.51 13.51 0 0 0 13.475-13.475v-90.537a79.03 79.03 0 0 0 -78.758-78.782h-114.437a79.03 79.03 0 0 0 -78.787 78.782v90.537a13.51 13.51 0 0 0 13.475 13.475z" fill="url(#GradientFill_1)" fill-rule="evenodd"/></svg>