<svg id="Capa_1" enable-background="new 0 0 512 512" height="512" viewBox="0 0 512 512" width="512" xmlns="http://www.w3.org/2000/svg"><g><g><g><g><g><path d="m27.5 123.929h358.318c11.046 0 20 8.954 20 20v82.118h-398.318v-82.118c0-11.046 8.954-20 20-20z" fill="#ff9a42"/></g></g></g><g><g><path d="m385.818 123.929h-96.073v92.118c0 3.474.516 6.829 1.463 10h114.61v-82.118c0-11.046-8.954-20-20-20z" fill="#ff7a3c"/></g></g><g><g><path d="m53.897 123.929h-28.566c-9.848 0-17.831 7.983-17.831 17.831v84.286h28.566v-84.286c0-9.848 7.983-17.831 17.831-17.831z" fill="#ff7a3c"/></g></g><g><path d="m99.898 165.063c-10.965 0-19.853-8.889-19.853-19.853v-47.437c0-10.965 8.889-19.853 19.853-19.853 10.965 0 19.853 8.889 19.853 19.853v47.436c0 10.965-8.889 19.854-19.853 19.854z" fill="#b3ceec"/></g><g><path d="m206.659 165.063c-10.965 0-19.853-8.889-19.853-19.853v-47.437c0-10.965 8.889-19.853 19.853-19.853 10.965 0 19.853 8.889 19.853 19.853v47.436c0 10.965-8.888 19.854-19.853 19.854z" fill="#b3ceec"/></g><g><path d="m385.818 504.5h-358.318c-11.046 0-20-8.954-20-20v-287.727h398.318v287.727c0 11.046-8.954 20-20 20z" fill="#d3e1f5"/></g><g><path d="m289.745 216.047c0 19.299 15.701 35 35 35h81.073v-54.274h-116.073z" fill="#b3ceec"/></g><g><path d="m36.066 486.669v-289.897h-28.566v289.896c0 9.848 7.983 17.831 17.831 17.831h28.566c-9.848.001-17.831-7.982-17.831-17.83z" fill="#b3ceec"/></g><g><path d="m180.368 298.393h-27.846c-2.761 0-5-2.239-5-5v-27.846c0-2.761 2.239-5 5-5h27.846c2.761 0 5 2.239 5 5v27.846c0 2.762-2.238 5-5 5z" fill="#b3ceec"/></g><g><path d="m260.795 298.393h-27.845c-2.761 0-5-2.239-5-5v-27.846c0-2.761 2.239-5 5-5h27.846c2.761 0 5 2.239 5 5v27.846c-.001 2.762-2.239 5-5.001 5z" fill="#b3ceec"/></g><g><g><g><path d="m341.222 298.393h-27.846c-2.761 0-5-2.239-5-5v-27.846c0-2.761 2.239-5 5-5h27.846c2.761 0 5 2.239 5 5v27.846c0 2.762-2.238 5-5 5z" fill="#ff9a42"/></g></g></g><g><path d="m99.941 369.559h-27.845c-2.761 0-5-2.239-5-5v-27.846c0-2.761 2.239-5 5-5h27.846c2.761 0 5 2.239 5 5v27.846c-.001 2.762-2.239 5-5.001 5z" fill="#b3ceec"/></g><g><path d="m180.368 369.559h-27.846c-2.761 0-5-2.239-5-5v-27.846c0-2.761 2.239-5 5-5h27.846c2.761 0 5 2.239 5 5v27.846c0 2.762-2.238 5-5 5z" fill="#b3ceec"/></g><g><path d="m260.795 369.559h-27.845c-2.761 0-5-2.239-5-5v-27.846c0-2.761 2.239-5 5-5h27.846c2.761 0 5 2.239 5 5v27.846c-.001 2.762-2.239 5-5.001 5z" fill="#b3ceec"/></g><g><g><g><path d="m341.222 369.559h-27.846c-2.761 0-5-2.239-5-5v-27.846c0-2.761 2.239-5 5-5h27.846c2.761 0 5 2.239 5 5v27.846c0 2.762-2.238 5-5 5z" fill="#ff9a42"/></g></g></g><g><path d="m180.368 440.725h-27.846c-2.761 0-5-2.239-5-5v-27.846c0-2.761 2.239-5 5-5h27.846c2.761 0 5 2.239 5 5v27.846c0 2.761-2.238 5-5 5z" fill="#b3ceec"/></g><g><path d="m260.795 440.725h-27.845c-2.761 0-5-2.239-5-5v-27.846c0-2.761 2.239-5 5-5h27.846c2.761 0 5 2.239 5 5v27.846c-.001 2.761-2.239 5-5.001 5z" fill="#b3ceec"/></g><g><path d="m99.941 298.393h-27.845c-2.761 0-5-2.239-5-5v-27.846c0-2.761 2.239-5 5-5h27.846c2.761 0 5 2.239 5 5v27.846c-.001 2.762-2.239 5-5.001 5z" fill="#b3ceec"/></g><g><path d="m99.941 440.725h-27.845c-2.761 0-5-2.239-5-5v-27.846c0-2.761 2.239-5 5-5h27.846c2.761 0 5 2.239 5 5v27.846c-.001 2.761-2.239 5-5.001 5z" fill="#b3ceec"/></g><g><g><g><path d="m341.222 440.725h-27.846c-2.761 0-5-2.239-5-5v-27.846c0-2.761 2.239-5 5-5h27.846c2.761 0 5 2.239 5 5v27.846c0 2.761-2.238 5-5 5z" fill="#ff9a42"/></g></g></g><g><path d="m446.977 226.047h-122.232c-5.523 0-10-4.477-10-10v-198.547c0-5.523 4.477-10 10-10h122.233c5.523 0 10 4.477 10 10v198.547c-.001 5.522-4.478 10-10.001 10z" fill="#ffd772"/></g><g><path d="m456.978 54.933c-9.49 2.41-17.26 9.172-21.017 18.042h-44.019c-17.138 0-31.081 13.943-31.081 31.081v20.608c0 17.138 13.943 31.081 31.081 31.081h44.02c3.757 8.869 11.527 15.632 21.016 18.042z" fill="#fdb440"/></g><g><path d="m338.302 216.046v-198.546c0-5.523 4.477-10 10-10h-23.557c-5.523 0-10 4.477-10 10v198.547c0 5.523 4.477 10 10 10h23.557c-5.523-.001-10-4.478-10-10.001z" fill="#fdb440"/></g><g><path d="m458.517 133.178v10.486c0 5.211 6.126 8.009 10.064 4.596l33.82-29.304c2.799-2.425 2.799-6.768 0-9.193l-33.82-29.304c-3.938-3.413-10.064-.615-10.064 4.596v10.486c0 1.344-1.089 2.433-2.433 2.433h-64.141c-3.359 0-6.082 2.723-6.082 6.082v20.607c0 3.359 2.723 6.082 6.082 6.082h64.141c1.344 0 2.433 1.089 2.433 2.433z" fill="#d3e1f5"/></g></g><g><path d="m405.818 256.62c-4.143 0-7.5 3.357-7.5 7.5v220.38c0 6.893-5.607 12.5-12.5 12.5h-358.318c-6.893 0-12.5-5.607-12.5-12.5v-146.94c0-4.143-3.357-7.5-7.5-7.5s-7.5 3.357-7.5 7.5v146.94c0 15.163 12.337 27.5 27.5 27.5h358.318c15.163 0 27.5-12.337 27.5-27.5v-220.38c0-4.142-3.357-7.5-7.5-7.5z"/><path d="m152.522 305.894h27.846c6.893 0 12.5-5.607 12.5-12.5v-27.846c0-6.893-5.607-12.5-12.5-12.5h-27.846c-6.893 0-12.5 5.607-12.5 12.5v27.846c0 6.892 5.608 12.5 12.5 12.5zm2.5-37.846h22.846v22.846h-22.846z"/><path d="m232.95 305.894h27.845c6.893 0 12.5-5.607 12.5-12.5v-27.846c0-6.893-5.607-12.5-12.5-12.5h-27.845c-6.893 0-12.5 5.607-12.5 12.5v27.846c0 6.892 5.608 12.5 12.5 12.5zm2.5-37.846h22.845v22.846h-22.845z"/><path d="m313.377 305.894h27.846c6.893 0 12.5-5.607 12.5-12.5v-27.846c0-6.893-5.607-12.5-12.5-12.5h-27.846c-6.893 0-12.5 5.607-12.5 12.5v27.846c0 6.892 5.607 12.5 12.5 12.5zm2.5-37.846h22.846v22.846h-22.846z"/><path d="m59.596 364.56c0 6.893 5.607 12.5 12.5 12.5h27.846c6.893 0 12.5-5.607 12.5-12.5v-27.846c0-6.893-5.607-12.5-12.5-12.5h-27.846c-6.893 0-12.5 5.607-12.5 12.5zm15-25.346h22.846v22.846h-22.846z"/><path d="m140.022 364.56c0 6.893 5.607 12.5 12.5 12.5h27.846c6.893 0 12.5-5.607 12.5-12.5v-27.846c0-6.893-5.607-12.5-12.5-12.5h-27.846c-6.893 0-12.5 5.607-12.5 12.5zm15-25.346h22.846v22.846h-22.846z"/><path d="m220.45 364.56c0 6.893 5.607 12.5 12.5 12.5h27.845c6.893 0 12.5-5.607 12.5-12.5v-27.846c0-6.893-5.607-12.5-12.5-12.5h-27.845c-6.893 0-12.5 5.607-12.5 12.5zm15-25.346h22.845v22.846h-22.845z"/><path d="m300.877 364.56c0 6.893 5.607 12.5 12.5 12.5h27.846c6.893 0 12.5-5.607 12.5-12.5v-27.846c0-6.893-5.607-12.5-12.5-12.5h-27.846c-6.893 0-12.5 5.607-12.5 12.5zm15-25.346h22.846v22.846h-22.846z"/><path d="m140.022 435.725c0 6.893 5.607 12.5 12.5 12.5h27.846c6.893 0 12.5-5.607 12.5-12.5v-27.846c0-6.893-5.607-12.5-12.5-12.5h-27.846c-6.893 0-12.5 5.607-12.5 12.5zm15-25.346h22.846v22.846h-22.846z"/><path d="m220.45 435.725c0 6.893 5.607 12.5 12.5 12.5h27.845c6.893 0 12.5-5.607 12.5-12.5v-27.846c0-6.893-5.607-12.5-12.5-12.5h-27.845c-6.893 0-12.5 5.607-12.5 12.5zm15-25.346h22.845v22.846h-22.845z"/><path d="m72.096 305.894h27.846c6.893 0 12.5-5.607 12.5-12.5v-27.846c0-6.893-5.607-12.5-12.5-12.5h-27.846c-6.893 0-12.5 5.607-12.5 12.5v27.846c0 6.892 5.607 12.5 12.5 12.5zm2.5-37.846h22.846v22.846h-22.846z"/><path d="m59.596 435.725c0 6.893 5.607 12.5 12.5 12.5h27.846c6.893 0 12.5-5.607 12.5-12.5v-27.846c0-6.893-5.607-12.5-12.5-12.5h-27.846c-6.893 0-12.5 5.607-12.5 12.5zm15-25.346h22.846v22.846h-22.846z"/><path d="m300.877 435.725c0 6.893 5.607 12.5 12.5 12.5h27.846c6.893 0 12.5-5.607 12.5-12.5v-27.846c0-6.893-5.607-12.5-12.5-12.5h-27.846c-6.893 0-12.5 5.607-12.5 12.5zm15-25.346h22.846v22.846h-22.846z"/><path d="m456.978 174.54c-4.143 0-7.5 3.357-7.5 7.5v34.007c0 1.379-1.121 2.5-2.5 2.5h-122.233c-1.379 0-2.5-1.121-2.5-2.5v-198.547c0-1.379 1.121-2.5 2.5-2.5h122.232c1.379 0 2.5 1.121 2.5 2.5v33.02c0 4.143 3.357 7.5 7.5 7.5s7.5-3.357 7.5-7.5v-33.02c0-9.649-7.851-17.5-17.5-17.5h-122.232c-9.649 0-17.5 7.851-17.5 17.5v98.929h-73.232v-18.656c0-15.083-12.271-27.354-27.354-27.354s-27.354 12.271-27.354 27.354v18.655h-52.055v-18.655c0-15.083-12.271-27.354-27.354-27.354s-27.352 12.271-27.352 27.354v18.655h-45.044c-15.163 0-27.5 12.337-27.5 27.5v154.465c0 4.143 3.357 7.5 7.5 7.5s7.5-3.357 7.5-7.5v-94.121h292.245v11.774c0 9.649 7.851 17.5 17.5 17.5h122.232c9.649 0 17.5-7.851 17.5-17.5v-34.006c.001-4.143-3.357-7.5-7.499-7.5zm-262.672-76.767c0-6.812 5.542-12.354 12.354-12.354s12.354 5.542 12.354 12.354v47.437c0 6.812-5.542 12.353-12.354 12.353s-12.354-5.541-12.354-12.353zm-106.762 0c0-6.812 5.542-12.354 12.354-12.354s12.354 5.542 12.354 12.354v47.437c0 6.812-5.542 12.353-12.354 12.353s-12.354-5.541-12.354-12.353zm219.701 91.499h-292.245v-45.344c0-6.893 5.607-12.5 12.5-12.5h45.044v13.781c0 15.082 12.271 27.353 27.354 27.353s27.354-12.271 27.354-27.353v-13.781h52.055v13.781c0 15.082 12.271 27.353 27.354 27.353s27.354-12.271 27.354-27.353v-13.781h73.232v57.844z"/><path d="m348 106.86c-4.143 0-7.5 3.357-7.5 7.5s3.357 7.5 7.5 7.5h7.88c4.143 0 7.5-3.357 7.5-7.5s-3.357-7.5-7.5-7.5z"/><path d="m507.312 104.096-33.818-29.304c-4.07-3.525-9.64-4.326-14.537-2.091-4.897 2.236-7.939 6.971-7.939 12.354v5.419h-59.074c-7.488 0-13.581 6.093-13.581 13.581v20.608c0 7.488 6.093 13.581 13.581 13.581h59.074v5.419c0 5.384 3.042 10.118 7.939 12.354 1.839.839 3.772 1.251 5.686 1.251 3.183 0 6.31-1.14 8.851-3.342l33.818-29.303c2.98-2.581 4.689-6.322 4.689-10.265-.001-3.941-1.71-7.682-4.689-10.262zm-41.295 36.462v-7.38c0-5.477-4.456-9.933-9.933-9.933h-62.723v-17.771h62.723c5.477 0 9.933-4.456 9.933-9.933v-7.38l30.235 26.197z"/></g></g></svg>