<svg id="Capa_1" enable-background="new 0 0 512 512" height="512" viewBox="0 0 512 512" width="512" xmlns="http://www.w3.org/2000/svg"><g><g><g><g><g><path d="m27.5 123.929h358.318c11.046 0 20 8.954 20 20v82.118h-398.318v-82.118c0-11.046 8.954-20 20-20z" fill="#ff9a42"/></g></g></g><g><g><path d="m385.818 123.929h-96.073v92.118c0 3.474.516 6.829 1.463 10h114.61v-82.118c0-11.046-8.954-20-20-20z" fill="#ff7a3c"/></g></g><g><g><path d="m53.897 123.929h-28.566c-9.848 0-17.831 7.983-17.831 17.831v84.286h28.566v-84.286c0-9.848 7.983-17.831 17.831-17.831z" fill="#ff7a3c"/></g></g><g><path d="m99.898 165.063c-10.965 0-19.853-8.889-19.853-19.853v-47.437c0-10.965 8.889-19.853 19.853-19.853 10.965 0 19.853 8.889 19.853 19.853v47.436c0 10.965-8.889 19.854-19.853 19.854z" fill="#b3ceec"/></g><g><path d="m206.659 165.063c-10.965 0-19.853-8.889-19.853-19.853v-47.437c0-10.965 8.889-19.853 19.853-19.853 10.965 0 19.853 8.889 19.853 19.853v47.436c0 10.965-8.888 19.854-19.853 19.854z" fill="#b3ceec"/></g><g><path d="m385.818 504.5h-358.318c-11.046 0-20-8.954-20-20v-287.727h398.318v287.727c0 11.046-8.954 20-20 20z" fill="#d3e1f5"/></g><g><path d="m289.745 216.047c0 19.299 15.701 35 35 35h81.073v-54.274h-116.073z" fill="#b3ceec"/></g><g><path d="m36.066 486.669v-289.897h-28.566v289.896c0 9.848 7.983 17.831 17.831 17.831h28.566c-9.848.001-17.831-7.982-17.831-17.83z" fill="#b3ceec"/></g><g><path d="m180.368 298.393h-27.846c-2.761 0-5-2.239-5-5v-27.846c0-2.761 2.239-5 5-5h27.846c2.761 0 5 2.239 5 5v27.846c0 2.762-2.238 5-5 5z" fill="#b3ceec"/></g><g><path d="m260.795 298.393h-27.845c-2.761 0-5-2.239-5-5v-27.846c0-2.761 2.239-5 5-5h27.846c2.761 0 5 2.239 5 5v27.846c-.001 2.762-2.239 5-5.001 5z" fill="#b3ceec"/></g><g><g><g><path d="m341.222 298.393h-27.846c-2.761 0-5-2.239-5-5v-27.846c0-2.761 2.239-5 5-5h27.846c2.761 0 5 2.239 5 5v27.846c0 2.762-2.238 5-5 5z" fill="#ff9a42"/></g></g></g><g><path d="m99.941 369.559h-27.845c-2.761 0-5-2.239-5-5v-27.846c0-2.761 2.239-5 5-5h27.846c2.761 0 5 2.239 5 5v27.846c-.001 2.762-2.239 5-5.001 5z" fill="#b3ceec"/></g><g><path d="m180.368 369.559h-27.846c-2.761 0-5-2.239-5-5v-27.846c0-2.761 2.239-5 5-5h27.846c2.761 0 5 2.239 5 5v27.846c0 2.762-2.238 5-5 5z" fill="#b3ceec"/></g><g><path d="m260.795 369.559h-27.845c-2.761 0-5-2.239-5-5v-27.846c0-2.761 2.239-5 5-5h27.846c2.761 0 5 2.239 5 5v27.846c-.001 2.762-2.239 5-5.001 5z" fill="#b3ceec"/></g><g><g><g><path d="m341.222 369.559h-27.846c-2.761 0-5-2.239-5-5v-27.846c0-2.761 2.239-5 5-5h27.846c2.761 0 5 2.239 5 5v27.846c0 2.762-2.238 5-5 5z" fill="#ff9a42"/></g></g></g><g><path d="m180.368 440.725h-27.846c-2.761 0-5-2.239-5-5v-27.846c0-2.761 2.239-5 5-5h27.846c2.761 0 5 2.239 5 5v27.846c0 2.761-2.238 5-5 5z" fill="#b3ceec"/></g><g><path d="m260.795 440.725h-27.845c-2.761 0-5-2.239-5-5v-27.846c0-2.761 2.239-5 5-5h27.846c2.761 0 5 2.239 5 5v27.846c-.001 2.761-2.239 5-5.001 5z" fill="#b3ceec"/></g><g><path d="m99.941 298.393h-27.845c-2.761 0-5-2.239-5-5v-27.846c0-2.761 2.239-5 5-5h27.846c2.761 0 5 2.239 5 5v27.846c-.001 2.762-2.239 5-5.001 5z" fill="#b3ceec"/></g><g><path d="m99.941 440.725h-27.845c-2.761 0-5-2.239-5-5v-27.846c0-2.761 2.239-5 5-5h27.846c2.761 0 5 2.239 5 5v27.846c-.001 2.761-2.239 5-5.001 5z" fill="#b3ceec"/></g><g><g><g><path d="m341.222 440.725h-27.846c-2.761 0-5-2.239-5-5v-27.846c0-2.761 2.239-5 5-5h27.846c2.761 0 5 2.239 5 5v27.846c0 2.761-2.238 5-5 5z" fill="#ff9a42"/></g></g></g><g><path d="m446.977 226.047h-122.232c-5.523 0-10-4.477-10-10v-198.547c0-5.523 4.477-10 10-10h122.233c5.523 0 10 4.477 10 10v198.547c-.001 5.522-4.478 10-10.001 10z" fill="#5f99d7"/></g><g><path d="m454.4 155.745h2.577v-82.77h-2.577c-4.728-11.162-15.8-19.012-28.672-19.012-7.445 0-14.662 2.7-20.319 7.603l-33.819 29.302c-6.818 5.907-10.729 14.47-10.729 23.492 0 9.021 3.911 17.583 10.729 23.49l33.818 29.302c5.659 4.904 12.876 7.604 20.321 7.604 12.872.001 23.944-7.849 28.671-19.011z" fill="#3c87d0"/></g><g><path d="m338.302 216.046v-198.546c0-5.523 4.477-10 10-10h-23.557c-5.523 0-10 4.477-10 10v198.547c0 5.523 4.477 10 10 10h23.557c-5.523-.001-10-4.478-10-10.001z" fill="#3c87d0"/></g><g><path d="m431.844 95.542v-10.486c0-5.211-6.126-8.009-10.064-4.596l-33.82 29.304c-2.799 2.425-2.799 6.768 0 9.193l33.82 29.304c3.938 3.413 10.064.615 10.064-4.596v-10.486c0-1.344 1.089-2.433 2.433-2.433h64.141c3.359 0 6.082-2.723 6.082-6.082v-20.607c0-3.359-2.723-6.082-6.082-6.082h-64.141c-1.343 0-2.433-1.09-2.433-2.433z" fill="#d3e1f5"/></g></g><g><path d="m405.818 256.62c-4.143 0-7.5 3.357-7.5 7.5v220.38c0 6.893-5.607 12.5-12.5 12.5h-358.318c-6.893 0-12.5-5.607-12.5-12.5v-146.94c0-4.143-3.357-7.5-7.5-7.5s-7.5 3.357-7.5 7.5v146.94c0 15.163 12.337 27.5 27.5 27.5h358.318c15.163 0 27.5-12.337 27.5-27.5v-220.38c0-4.142-3.357-7.5-7.5-7.5z"/><path d="m152.522 305.894h27.846c6.893 0 12.5-5.607 12.5-12.5v-27.846c0-6.893-5.607-12.5-12.5-12.5h-27.846c-6.893 0-12.5 5.607-12.5 12.5v27.846c0 6.892 5.608 12.5 12.5 12.5zm2.5-37.846h22.846v22.846h-22.846z"/><path d="m232.95 305.894h27.845c6.893 0 12.5-5.607 12.5-12.5v-27.846c0-6.893-5.607-12.5-12.5-12.5h-27.845c-6.893 0-12.5 5.607-12.5 12.5v27.846c0 6.892 5.608 12.5 12.5 12.5zm2.5-37.846h22.845v22.846h-22.845z"/><path d="m313.377 305.894h27.846c6.893 0 12.5-5.607 12.5-12.5v-27.846c0-6.893-5.607-12.5-12.5-12.5h-27.846c-6.893 0-12.5 5.607-12.5 12.5v27.846c0 6.892 5.607 12.5 12.5 12.5zm2.5-37.846h22.846v22.846h-22.846z"/><path d="m59.596 364.56c0 6.893 5.607 12.5 12.5 12.5h27.846c6.893 0 12.5-5.607 12.5-12.5v-27.846c0-6.893-5.607-12.5-12.5-12.5h-27.846c-6.893 0-12.5 5.607-12.5 12.5zm15-25.346h22.846v22.846h-22.846z"/><path d="m140.022 364.56c0 6.893 5.607 12.5 12.5 12.5h27.846c6.893 0 12.5-5.607 12.5-12.5v-27.846c0-6.893-5.607-12.5-12.5-12.5h-27.846c-6.893 0-12.5 5.607-12.5 12.5zm15-25.346h22.846v22.846h-22.846z"/><path d="m220.45 364.56c0 6.893 5.607 12.5 12.5 12.5h27.845c6.893 0 12.5-5.607 12.5-12.5v-27.846c0-6.893-5.607-12.5-12.5-12.5h-27.845c-6.893 0-12.5 5.607-12.5 12.5zm15-25.346h22.845v22.846h-22.845z"/><path d="m300.877 364.56c0 6.893 5.607 12.5 12.5 12.5h27.846c6.893 0 12.5-5.607 12.5-12.5v-27.846c0-6.893-5.607-12.5-12.5-12.5h-27.846c-6.893 0-12.5 5.607-12.5 12.5zm15-25.346h22.846v22.846h-22.846z"/><path d="m140.022 435.725c0 6.893 5.607 12.5 12.5 12.5h27.846c6.893 0 12.5-5.607 12.5-12.5v-27.846c0-6.893-5.607-12.5-12.5-12.5h-27.846c-6.893 0-12.5 5.607-12.5 12.5zm15-25.346h22.846v22.846h-22.846z"/><path d="m220.45 435.725c0 6.893 5.607 12.5 12.5 12.5h27.845c6.893 0 12.5-5.607 12.5-12.5v-27.846c0-6.893-5.607-12.5-12.5-12.5h-27.845c-6.893 0-12.5 5.607-12.5 12.5zm15-25.346h22.845v22.846h-22.845z"/><path d="m72.096 305.894h27.846c6.893 0 12.5-5.607 12.5-12.5v-27.846c0-6.893-5.607-12.5-12.5-12.5h-27.846c-6.893 0-12.5 5.607-12.5 12.5v27.846c0 6.892 5.607 12.5 12.5 12.5zm2.5-37.846h22.846v22.846h-22.846z"/><path d="m59.596 435.725c0 6.893 5.607 12.5 12.5 12.5h27.846c6.893 0 12.5-5.607 12.5-12.5v-27.846c0-6.893-5.607-12.5-12.5-12.5h-27.846c-6.893 0-12.5 5.607-12.5 12.5zm15-25.346h22.846v22.846h-22.846z"/><path d="m300.877 435.725c0 6.893 5.607 12.5 12.5 12.5h27.846c6.893 0 12.5-5.607 12.5-12.5v-27.846c0-6.893-5.607-12.5-12.5-12.5h-27.846c-6.893 0-12.5 5.607-12.5 12.5zm15-25.346h22.846v22.846h-22.846z"/><path d="m456.978 154.86c-4.143 0-7.5 3.357-7.5 7.5v53.687c0 1.379-1.121 2.5-2.5 2.5h-122.233c-1.379 0-2.5-1.121-2.5-2.5v-198.547c0-1.379 1.121-2.5 2.5-2.5h122.232c1.379 0 2.5 1.121 2.5 2.5v47.42c0 4.143 3.357 7.5 7.5 7.5s7.5-3.357 7.5-7.5v-47.42c0-9.649-7.851-17.5-17.5-17.5h-122.232c-9.649 0-17.5 7.851-17.5 17.5v98.929h-73.232v-18.656c0-15.083-12.271-27.354-27.354-27.354s-27.354 12.271-27.354 27.354v18.655h-52.055v-18.655c0-15.083-12.271-27.354-27.354-27.354s-27.352 12.271-27.352 27.354v18.655h-45.044c-15.163 0-27.5 12.337-27.5 27.5v52.844 16.228 85.394c0 4.143 3.357 7.5 7.5 7.5s7.5-3.357 7.5-7.5v-85.394-8.728h292.245v11.774c0 9.649 7.851 17.5 17.5 17.5h122.232c9.649 0 17.5-7.851 17.5-17.5v-53.686c.001-4.142-3.357-7.5-7.499-7.5zm-262.672-57.087c0-6.812 5.542-12.354 12.354-12.354s12.354 5.542 12.354 12.354v47.437c0 6.812-5.542 12.353-12.354 12.353s-12.354-5.541-12.354-12.353zm-106.762 0c0-6.812 5.542-12.354 12.354-12.354s12.354 5.542 12.354 12.354v47.437c0 6.812-5.542 12.353-12.354 12.353s-12.354-5.541-12.354-12.353zm-72.544 91.499v-45.344c0-6.893 5.607-12.5 12.5-12.5h45.044v13.781c0 15.082 12.271 27.353 27.354 27.353s27.354-12.271 27.354-27.353v-13.781h52.055v13.781c0 15.082 12.271 27.353 27.354 27.353s27.354-12.271 27.354-27.353v-13.781h73.232v57.844z"/><path d="m348 106.86c-4.143 0-7.5 3.357-7.5 7.5s3.357 7.5 7.5 7.5h7.88c4.143 0 7.5-3.357 7.5-7.5s-3.357-7.5-7.5-7.5z"/><path d="m498.418 90.475h-59.073v-5.419c0-5.384-3.042-10.118-7.939-12.354-4.898-2.235-10.468-1.435-14.536 2.091l-33.82 29.303c-2.979 2.582-4.688 6.323-4.688 10.266 0 3.941 1.708 7.683 4.688 10.264l33.819 29.304c2.542 2.202 5.669 3.342 8.852 3.342 1.913 0 3.847-.412 5.686-1.251 4.897-2.236 7.939-6.971 7.939-12.354v-5.419h59.073c7.489 0 13.582-6.093 13.582-13.581v-20.607c-.001-7.493-6.094-13.585-13.583-13.585zm-1.418 32.77h-62.723c-5.477 0-9.933 4.456-9.933 9.933v7.38l-30.236-26.197 30.236-26.198v7.38c0 5.477 4.456 9.933 9.933 9.933h62.723z"/></g></g></svg>