<svg xmlns="http://www.w3.org/2000/svg" data-name="Layer 1" viewBox="0 0 512 512"><path fill="#f7caa5" d="M377.63,180.99h41.09a23.345,23.345,0,0,1,23.34,23.3c.1,50.11.02,52.19-.07,133.88-.04,45.68-34.35,83.75-78.46,89.76v.04H232.26v-.04a90.73,90.73,0,0,1-66.83-45.75L69.89,210.65l9.98-7.66a49.764,49.764,0,0,1,69.74,5.03l26.73,30.66.15-195.67A32.926,32.926,0,0,1,209.41,10.1h.01a32.924,32.924,0,0,1,32.93,32.98c-.04,21.84-.11,51.6-.17,80.83h44.36a23.349,23.349,0,0,1,23.34,23.35v5.89h44.41a23.349,23.349,0,0,1,23.34,23.35Z"/><polygon fill="#00acea" points="414.74 427.97 414.74 501.9 185.97 501.9 185.97 427.97 232.26 427.97 363.53 427.97 414.74 427.97"/><path fill="#edb288" d="M226.83,35.12V70.13a52.167,52.167,0,0,1-35.04,0V35.12Z"/></svg>