<svg id="Capa_1" enable-background="new 0 0 512 512" height="512" viewBox="0 0 512 512" width="512" xmlns="http://www.w3.org/2000/svg" xmlns:xlink="http://www.w3.org/1999/xlink"><linearGradient id="SVGID_1_" gradientUnits="userSpaceOnUse" x1="256" x2="256" y1="0" y2="512"><stop offset="0" stop-color="#2af598"/><stop offset="1" stop-color="#009efd"/></linearGradient><path d="m60 472h56v40h-56c-33.084 0-60-26.916-60-60v-56h40v56c0 11.028 8.972 20 20 20zm-20-412c0-11.028 8.972-20 20-20h56v-40h-56c-33.084 0-60 26.916-60 60v56h40zm395.951 180.574-39.904-2.758c-.147 2.136-3.169 52.761 35.602 92.706l28.703-27.859c-26.032-26.821-24.411-61.871-24.392-62.222zm-295.661-79.704-33.033-22.556c-20.448 29.948-31.257 64.97-31.257 101.279 0 16.495 2.044 103.333 42.392 193.192l36.49-16.385c-37.007-82.42-38.882-161.743-38.882-176.807 0-28.228 8.399-55.449 24.29-78.723zm115.71-59.87c59.396 0 110.919 35.279 131.258 89.879l37.484-13.964c-12.658-33.979-35.167-62.926-65.091-83.71-30.333-21.069-66.174-32.205-103.651-32.205-39.063 0-75.251 11.138-104.65 32.209l23.301 32.512c22.565-16.173 50.695-24.721 81.349-24.721zm216 351c0 11.028-8.972 20-20 20h-56v40h56c33.084 0 60-26.916 60-60v-56h-40zm-20-452h-56v40h56c11.028 0 20 8.972 20 20v56h40v-56c0-33.084-26.916-60-60-60zm-252.087 285.671-39.57 5.844c4.227 28.619 13.563 71.806 34.037 115.021 5.257 11.096 11.08 21.848 17.309 31.956l34.055-20.982c-5.463-8.867-10.582-18.321-15.215-28.101-18.366-38.763-26.786-77.808-30.616-103.738zm175.358 35.548c-15.887-33.324-19.241-72.875-19.271-81.682-.027-55.443-44.877-100.537-100-100.537-55.141 0-100 45.126-100 100.593h40c0-33.411 26.916-60.593 60-60.593s60 26.589 60 60c.043 14.052 4.287 59.834 23.164 99.432 9.333 19.576 20.482 34.66 34.088 46.115l25.762-30.6c-9.15-7.703-16.916-18.409-23.743-32.728zm-99.271-82.219c-.523-10.614-9.291-19-20-19s-19.477 9.386-20 20c.175 12.362 3.375 108.885 59.496 178.834l31.199-25.031c-50.115-62.463-50.695-153.893-50.695-154.803z" fill="url(#SVGID_1_)"/></svg>