<svg xmlns="http://www.w3.org/2000/svg" viewBox="0 0 48 48"><g data-name="ID Card"><path d="M45,9H29.858A3.9955,3.9955,0,0,0,26,6H25V4a1,1,0,0,0-2,0V6H22a3.9955,3.9955,0,0,0-3.858,3H3a1,1,0,0,0-1,1V44a1,1,0,0,0,1,1H45a1,1,0,0,0,1-1V10A1,1,0,0,0,45,9ZM22,8h4a2.0027,2.0027,0,0,1,2,2v3H20V10A2.0027,2.0027,0,0,1,22,8ZM44,43H4V11H18v3a1,1,0,0,0,1,1H29a1,1,0,0,0,1-1V11H44Z"/><path d="M24 18H8a1 1 0 0 0-1 1V39a1 1 0 0 0 1 1H24a1 1 0 0 0 1-1V19A1 1 0 0 0 24 18zm-4 6a4 4 0 1 1-4-4A4.0039 4.0039 0 0 1 20 24zM9 20h2.54a5.9714 5.9714 0 0 0 .8334 8.7692A9.043 9.043 0 0 0 9 31.3553zM9 37a7 7 0 0 1 14 0v1H9zm10.6261-8.2308A5.9714 5.9714 0 0 0 20.46 20H23V31.3553A9.042 9.042 0 0 0 19.6261 28.7692zM32 21h8a1 1 0 0 0 0-2H32a1 1 0 0 0 0 2zM40 37H29a1 1 0 0 0 0 2H40a1 1 0 0 0 0-2zM40 31H29a1 1 0 0 0 0 2H40a1 1 0 0 0 0-2zM40 25H29a1 1 0 0 0 0 2H40a1 1 0 0 0 0-2z"/></g></svg>