<svg xmlns="http://www.w3.org/2000/svg" viewBox="0 0 64 64"><g data-name="id card-passport-badge"><rect width="56" height="36" x="4" y="14" fill="#57a4ff" rx="2"/><rect width="16" height="16" x="8" y="22" fill="#ff7956"/><path fill="#ffeb99" d="M23,38H9a7,7,0,0,1,14,0Z"/><circle cx="16" cy="28" r="3" fill="#ffeb99"/><path fill="#e0e0e2" d="M27,3V18H37V3Zm5,7a2,2,0,1,1,2-2A2.006,2.006,0,0,1,32,10Z"/><circle cx="48" cy="48" r="13" fill="#00e7f0"/><rect width="4" height="2" x="30" y="13" fill="#2488ff"/><path fill="#fff" d="M45,52.586l-4.293-4.293-1.414,1.414,5,5a1,1,0,0,0,1.414,0l11-11-1.414-1.414Z"/><rect width="30" height="2" x="27" y="22" fill="#fff"/><rect width="30" height="2" x="27" y="27" fill="#fff"/><rect width="10" height="2" x="27" y="32" fill="#fff"/><rect width="10" height="1" x="28" y="18" fill="#005ece"/><rect width="1" height="5" x="37" y="14" fill="#005ece"/></g></svg>