<svg height="512pt" viewBox="0 -64 512 512" width="512pt" xmlns="http://www.w3.org/2000/svg"><path d="m453.332031 0h-394.664062c-32.363281 0-58.667969 26.304688-58.667969 58.667969v266.664062c0 32.363281 26.304688 58.667969 58.667969 58.667969h394.664062c32.363281 0 58.667969-26.304688 58.667969-58.667969v-266.664062c0-32.363281-26.304688-58.667969-58.667969-58.667969zm0 0" fill="#eceff1"/><path d="m213.332031 138.667969c0 29.453125-23.875 53.332031-53.332031 53.332031s-53.332031-23.878906-53.332031-53.332031c0-29.457031 23.875-53.335938 53.332031-53.335938s53.332031 23.878907 53.332031 53.335938zm0 0" fill="#42a5f5"/><path d="m256 282.667969c0 8.832031-7.167969 16-16 16h-160c-8.832031 0-16-7.167969-16-16v-10.667969c0-32.363281 26.304688-58.667969 58.667969-58.667969h74.664062c32.363281 0 58.667969 26.304688 58.667969 58.667969zm0 0" fill="#42a5f5"/><g fill="#607d8b"><path d="m432 298.667969h-117.332031c-8.832031 0-16-7.167969-16-16s7.167969-16 16-16h117.332031c8.832031 0 16 7.167969 16 16s-7.167969 16-16 16zm0 0"/><path d="m432 213.332031h-117.332031c-8.832031 0-16-7.167969-16-16s7.167969-16 16-16h117.332031c8.832031 0 16 7.167969 16 16s-7.167969 16-16 16zm0 0"/><path d="m432 128h-117.332031c-8.832031 0-16-7.167969-16-16s7.167969-16 16-16h117.332031c8.832031 0 16 7.167969 16 16s-7.167969 16-16 16zm0 0"/></g></svg>