<svg xmlns="http://www.w3.org/2000/svg" viewBox="0 0 64 64"><rect width="32" height="46" x="16" y="15" fill="#00ace9" rx="5"/><rect width="24" height="19" x="20" y="25" fill="#d0d0d0" rx="3"/><circle cx="32" cy="32" r="3" fill="#514540"/><path fill="#514540" d="M39 2a1 1 0 0 0-1 1V6a6 6 0 0 1-5 5.91V11a1 1 0 0 0-2 0v.91A6 6 0 0 1 26 6V3a1 1 0 0 0-2 0V6a8 8 0 0 0 7 7.93v1.21a4 4 0 1 0 2 0V13.93A8 8 0 0 0 40 6V3A1 1 0 0 0 39 2zM32 36a7 7 0 0 0-7 7 1 1 0 0 0 1 1H38a1 1 0 0 0 1-1A7 7 0 0 0 32 36z"/><path fill="#f18700" d="M43 55H39a1 1 0 0 0 0 2h4a1 1 0 0 0 0-2zM34 55H30a1 1 0 0 0 0 2h4a1 1 0 0 0 0-2zM25 55H21a1 1 0 0 0 0 2h4a1 1 0 0 0 0-2zM39 50a1 1 0 0 0-1-1H26a1 1 0 0 0 0 2H38A1 1 0 0 0 39 50zM23 48H41a1 1 0 0 0 0-2H23a1 1 0 0 0 0 2z"/></svg>