<svg xmlns="http://www.w3.org/2000/svg" data-name="Layer 1" viewBox="0 0 48 48"><path fill="#54c0eb" d="M31,6H17a3,3,0,0,0-3,3v6a1,1,0,0,0,1,1H33a1,1,0,0,0,1-1V9A3,3,0,0,0,31,6Z"/><rect width="42" height="32" x="3" y="14" fill="#f2f2f2" rx="3"/><circle cx="16" cy="25" r="5" fill="#ffd164"/><path fill="#ffd164" d="M16,30a5.734,5.734,0,0,0-5.727,5.727v2.455a.818.818,0,0,0,.818.818h9.818a.818.818,0,0,0,.818-.818V35.727A5.734,5.734,0,0,0,16,30Z"/><path fill="#232323" d="M38 26H27a1 1 0 010-2H38a1 1 0 010 2zM38 31H27a1 1 0 010-2H38a1 1 0 010 2zM38 36H27a1 1 0 010-2H38a1 1 0 010 2zM16 31a6 6 0 116-6A6.006 6.006 0 0116 31zm0-10a4 4 0 104 4A4 4 0 0016 21z"/><path fill="#232323" d="M22,40H10a1,1,0,0,1-1-1V36a7,7,0,0,1,14,0v3A1,1,0,0,1,22,40ZM11,38H21V36a5,5,0,0,0-10,0Z"/><path fill="#232323" d="M42,46H6a3,3,0,0,1-3-3V17a3,3,0,0,1,3-3H42a3,3,0,0,1,3,3V43A3,3,0,0,1,42,46ZM6,16a1,1,0,0,0-1,1V43a1,1,0,0,0,1,1H42a1,1,0,0,0,1-1V17a1,1,0,0,0-1-1Z"/><path fill="#232323" d="M33,16H15a1,1,0,0,1-1-1V9a3,3,0,0,1,3-3H31a3,3,0,0,1,3,3v6A1,1,0,0,1,33,16ZM16,14H32V9a1,1,0,0,0-1-1H17a1,1,0,0,0-1,1Z"/></svg>