<svg height="464pt" viewBox="0 0 464 464" width="464pt" xmlns="http://www.w3.org/2000/svg"><path d="m192 296v40l-80 16v80h240v-80l-80-16v-40zm0 0" fill="#f4cda5"/><path d="m464 464h-232v-16l80-24v-32l32-16-15.519531-31.039062c76 9.519531 135.519531 43.839843 135.519531 119.039062zm0 0" fill="#7ecefd"/><path d="m344 376-32 16v32l-80 24v-24l80-80h8l8.480469.960938zm0 0" fill="#f2f2f2"/><path d="m232 424v24l-80-24v-32l-32-16 15.519531-31.039062 8.480469-.960938h8zm0 0" fill="#f2f2f2"/><path d="m232 448v16h-232c0-75.199219 59.519531-109.519531 135.519531-119.039062l-15.519531 31.039062 32 16v32zm0 0" fill="#7ecefd"/><g fill="#ddbc9e"><path d="m136 168v48h-8c-13.253906 0-24-10.746094-24-24s10.746094-24 24-24zm0 0"/><path d="m360 192c0 13.253906-10.746094 24-24 24h-8v-48h8c13.253906 0 24 10.746094 24 24zm0 0"/><path d="m192 308.472656c1.257812.640625 2.511719 1.351563 3.777344 1.941406 11.222656 5.816407 23.589844 9.085938 36.222656 9.585938 12.597656-.492188 24.929688-3.746094 36.128906-9.535156 1.285156-.617188 2.574219-1.3125 3.871094-1.976563v-20.488281h-80zm0 0"/></g><path d="m336 168h-8v48c0 39.28125-35.441406 73.199219-66.71875 88-9.074219 4.742188-19.058594 7.46875-29.28125 8-10.222656-.53125-20.207031-3.257812-29.28125-8-11.109375-5.289062-21.445312-12.074219-30.71875-20.160156-20-17.441406-36-41.441406-36-67.839844v-48h-8c96-16 144-48 144-48s40 48 64 48zm0 0" fill="#f4cda5"/><path d="m376 264c-30.457031 22.414062-66.375 36.226562-104 40h-10.71875c31.277344-14.800781 66.71875-48.71875 66.71875-88h8c13.253906 0 24-10.746094 24-24s-10.746094-24-24-24c-24 0-64-48-64-48s-48 32-144 48c-13.253906 0-24 10.746094-24 24s10.746094 24 24 24h8c0 26.398438 16 50.398438 36 67.839844 9.273438 8.085937 19.609375 14.871094 30.71875 20.160156h-10.71875c-37.625-3.773438-73.542969-17.585938-104-40-26-20.320312 20.71875-170.800781 24-184h240c3.28125 13.199219 50 163.679688 24 184zm0 0"/><path d="m232 272.046875c-10.503906.109375-20.730469-3.351563-29.007812-9.816406-2.34375-1.75-3.546876-4.640625-3.136719-7.539063.414062-2.894531 2.375-5.335937 5.117187-6.363281 2.738282-1.027344 5.820313-.472656 8.035156 1.441406 11.3125 8.261719 26.671876 8.261719 37.984376 0 2.214843-1.914062 5.296874-2.46875 8.035156-1.441406 2.742187 1.027344 4.703125 3.46875 5.117187 6.363281.410157 2.898438-.792969 5.789063-3.136719 7.539063-8.277343 6.464843-18.503906 9.925781-29.007812 9.816406zm0 0" fill="#ed5276"/><path d="m280 208c-8.835938 0-16-7.164062-16-16s7.164062-16 16-16 16 7.164062 16 16-7.164062 16-16 16zm0-16"/><path d="m184 208c-8.835938 0-16-7.164062-16-16s7.164062-16 16-16 16 7.164062 16 16-7.164062 16-16 16zm0-16"/><path d="m368 40-32 80c-27-18.265625-80-24-104-24s-77 5.734375-104 24l-32-80c56-32 94-40 136-40s80 8 136 40zm0 0" fill="#f2f2f2"/><path d="m248 40h-8v-8c0-4.417969-3.582031-8-8-8s-8 3.582031-8 8v8h-8c-4.417969 0-8 3.582031-8 8s3.582031 8 8 8h8v8c0 4.417969 3.582031 8 8 8s8-3.582031 8-8v-8h8c4.417969 0 8-3.582031 8-8s-3.582031-8-8-8zm0 0" fill="#c1272d"/></svg>