<svg id="Layer_1" height="512" viewBox="0 0 256 256" width="512" xmlns="http://www.w3.org/2000/svg"><g><path d="m239.051 239.49v-27.28c0-16.62-13.46-30.08-30.1-30.08h-19.9v-16.857h-33.44v16.857h-19.89c-16.64 0-30.13 13.46-30.13 30.08v27.28z" fill="#f5e1c5"/><path d="m239.051 240.99h-133.46c-.828 0-1.5-.671-1.5-1.5v-27.28c0-17.413 14.189-31.58 31.63-31.58h18.39v-15.356c0-.829.672-1.5 1.5-1.5h33.44c.828 0 1.5.671 1.5 1.5v15.356h18.399c17.425 0 31.601 14.167 31.601 31.58v27.28c0 .828-.672 1.5-1.5 1.5zm-131.96-3h130.46v-25.78c0-15.759-12.83-28.58-28.601-28.58h-19.899c-.828 0-1.5-.671-1.5-1.5v-15.356h-30.44v15.356c0 .829-.672 1.5-1.5 1.5h-19.89c-15.786 0-28.63 12.821-28.63 28.58z" fill="#3a312a"/><path d="m239.052 239.49v-27.28c0-16.62-13.46-30.08-30.1-30.08h-22.04l-14.6 19.37-14.59-19.37h-22c-16.64 0-30.13 13.46-30.13 30.08v27.28z" fill="#eb6e7a"/><path d="m239.052 240.99h-133.46c-.828 0-1.5-.671-1.5-1.5v-27.28c0-17.413 14.19-31.58 31.63-31.58h22c.471 0 .915.221 1.198.598l13.392 17.78 13.402-17.78c.284-.376.728-.597 1.198-.597h22.04c17.424 0 31.6 14.167 31.6 31.58v27.28c0 .827-.672 1.499-1.5 1.499zm-131.96-3h130.46v-25.78c0-15.759-12.83-28.58-28.6-28.58h-21.292l-14.15 18.773c-.284.376-.728.597-1.198.597-.472 0-.915-.221-1.198-.598l-14.14-18.773h-21.252c-15.786 0-28.63 12.821-28.63 28.58z" fill="#3a312a"/><path d="m172.311 201.504-10.72 8.065-20.673-27.439 10.72-8.085z" fill="#eb6e7a"/><path d="m161.592 211.069c-.455 0-.904-.206-1.199-.597l-20.673-27.439c-.498-.662-.366-1.602.295-2.101l10.72-8.084c.317-.239.717-.344 1.112-.288.394.055.75.265.989.583l20.673 27.459c.239.318.343.718.287 1.112s-.266.75-.584.989l-10.72 8.064c-.269.204-.586.302-.9.302zm-18.573-28.645 18.868 25.045 8.323-6.261-18.868-25.061z" fill="#3a312a"/><path d="m203.723 182.13-20.673 27.439-10.739-8.065 20.692-27.459z" fill="#eb6e7a"/><g fill="#3a312a"><path d="m183.05 211.069c-.314 0-.63-.098-.899-.3l-10.74-8.064c-.318-.239-.529-.595-.585-.99-.056-.394.048-.794.287-1.113l20.692-27.459c.24-.318.596-.527.989-.582.398-.057.794.048 1.112.288l10.721 8.084c.661.499.793 1.439.295 2.101l-20.673 27.439c-.295.39-.744.596-1.199.596zm-8.637-9.862 8.341 6.263 18.869-25.046-8.325-6.278z"/><path d="m129.98 240.996c-.828 0-1.5-.671-1.5-1.5v-21.557c0-.829.672-1.5 1.5-1.5s1.5.671 1.5 1.5v21.557c0 .829-.671 1.5-1.5 1.5z"/><path d="m214.66 240.996c-.828 0-1.5-.671-1.5-1.5v-21.557c0-.829.672-1.5 1.5-1.5s1.5.671 1.5 1.5v21.557c0 .829-.672 1.5-1.5 1.5z"/></g><path d="m237.556 212.21v25.78h-15v-25.78c0-12.5-8.07-23.14-19.27-27.01l1.19-1.57h4.48c15.77 0 28.6 12.82 28.6 28.58z" fill="#d24e5c"/><path d="m116.821 91h111v70h-111z" fill="#87796f"/><path d="m227.821 162.499h-111c-.828 0-1.5-.671-1.5-1.5v-69.999c0-.829.672-1.5 1.5-1.5h111c.828 0 1.5.671 1.5 1.5v70c0 .828-.672 1.499-1.5 1.499zm-109.5-3h108v-67h-108z" fill="#3a312a"/><path clip-rule="evenodd" d="m133.239 109.756c0 6.424-5.21 11.632-11.637 11.632s-11.637-5.207-11.637-11.632c0-6.424 5.21-11.631 11.637-11.631s11.637 5.207 11.637 11.631z" fill="#f6e2c6" fill-rule="evenodd"/><path d="m121.602 122.888c-7.243 0-13.137-5.891-13.137-13.131 0-7.241 5.894-13.131 13.137-13.131 7.244 0 13.138 5.891 13.138 13.131-.001 7.24-5.894 13.131-13.138 13.131zm0-23.263c-5.59 0-10.137 4.545-10.137 10.131 0 5.587 4.547 10.131 10.137 10.131s10.138-4.545 10.138-10.131c-.001-5.586-4.549-10.131-10.138-10.131z" fill="#3a312a"/><path clip-rule="evenodd" d="m234.814 109.756c0 6.424-5.21 11.632-11.637 11.632s-11.638-5.207-11.638-11.632c0-6.424 5.21-11.631 11.638-11.631 6.427 0 11.637 5.207 11.637 11.631z" fill="#f6e2c6" fill-rule="evenodd"/><path d="m223.177 122.888c-7.244 0-13.138-5.891-13.138-13.131 0-7.241 5.894-13.131 13.138-13.131 7.243 0 13.137 5.891 13.137 13.131s-5.894 13.131-13.137 13.131zm0-23.263c-5.59 0-10.138 4.545-10.138 10.131 0 5.587 4.548 10.131 10.138 10.131s10.137-4.545 10.137-10.131-4.547-10.131-10.137-10.131z" fill="#3a312a"/><path d="m223.982 104.113c0 16.03-8.7 36.9-20.62 52.07-9.24 11.78-20.42 20.12-30.97 20.12-10.39 0-21.89-8.88-31.39-21.24-11.59-15.07-20.2-35.31-20.2-50.95 0-28.48 23.09-51.57 51.59-51.57 28.49 0 51.59 23.091 51.59 51.57z" fill="#f6e2c6"/><path d="m172.392 177.803c-10.043 0-21.918-7.955-32.579-21.826-12.46-16.202-20.511-36.559-20.511-51.864 0-29.263 23.816-53.07 53.09-53.07s53.09 23.807 53.09 53.07c0 15.76-8.415 37.058-20.939 52.997-10.468 13.344-21.887 20.693-32.151 20.693zm0-123.759c-27.62 0-50.09 22.461-50.09 50.07 0 14.685 7.807 34.325 19.89 50.036 10.089 13.127 21.096 20.654 30.2 20.654 9.188 0 20.047-7.124 29.79-19.545 12.143-15.453 20.3-36.005 20.3-51.144-.001-27.61-22.47-50.071-50.09-50.071z" fill="#3a312a"/><path d="m159.21 103.528c0 2.78-2.254 5.033-5.035 5.033s-5.035-2.253-5.035-5.033c0-2.779 2.254-5.033 5.035-5.033s5.035 2.254 5.035 5.033z" fill="#3a312a"/><path d="m195.639 103.528c0 2.78-2.254 5.033-5.036 5.033-2.781 0-5.035-2.253-5.035-5.033 0-2.779 2.254-5.033 5.035-5.033s5.036 2.254 5.036 5.033z" fill="#3a312a"/><path d="m152.785 118.491c0 3.579-3.884 6.481-8.674 6.481s-8.674-2.902-8.674-6.481 3.884-6.481 8.674-6.481c4.791 0 8.674 2.901 8.674 6.481z" fill="#f59689"/><path d="m209.341 118.491c0 3.579-3.883 6.481-8.674 6.481s-8.674-2.902-8.674-6.481 3.884-6.481 8.674-6.481c4.791 0 8.674 2.901 8.674 6.481z" fill="#f59689"/><path d="m172.388 147.435c-7.284 0-12.536-3.271-15.609-9.723-.356-.748-.038-1.643.71-1.999.749-.358 1.642-.038 1.999.709 2.568 5.392 6.788 8.013 12.9 8.013 7.824 0 11.827-5.164 12.851-7.895.29-.776 1.152-1.169 1.931-.878.775.291 1.169 1.155.878 1.931-1.778 4.74-7.436 9.842-15.66 9.842z" fill="#3a312a"/><path d="m232.853 82.711c0 5.379-.7 10.593-2.023 15.557-13.454-6.483-26.251-14.442-38.108-23.439-3.478-2.635-6.902-5.379-10.173-8.287-4.014-3.52-7.81-7.314-11.234-11.424-7.449-8.965-12.918-19.263-17.545-29.988 5.841-1.891 12.076-2.908 18.551-2.908 17.315 0 32.935 7.27 43.971 18.924 10.272 10.833 16.561 25.461 16.561 41.565z" fill="#87796f"/><path d="m230.83 99.768c-.223 0-.445-.05-.651-.149-13.216-6.368-26.124-14.307-38.364-23.596-3.903-2.957-7.261-5.692-10.263-8.36-4.278-3.752-8.112-7.652-11.389-11.586-6.633-7.982-12.279-17.626-17.77-30.354-.168-.388-.164-.828.011-1.213.174-.385.502-.678.904-.809 6.109-1.978 12.506-2.981 19.013-2.981 17.215 0 33.218 6.887 45.061 19.393 10.944 11.544 16.972 26.672 16.972 42.597 0 5.417-.698 10.781-2.074 15.943-.115.432-.417.79-.823.977-.199.092-.413.138-.627.138zm-75.014-73.7c5.163 11.701 10.477 20.658 16.652 28.09 3.176 3.812 6.9 7.6 11.069 11.255 2.949 2.622 6.247 5.309 10.089 8.219 11.57 8.78 23.738 16.335 36.196 22.476 1.016-4.361 1.53-8.859 1.53-13.397 0-15.153-5.735-29.549-16.149-40.534-11.271-11.902-26.5-18.456-42.883-18.456-5.631 0-11.175.789-16.504 2.347z" fill="#3a312a"/><path d="m216.293 41.145c-10.413 9.489-21.745 17.886-33.744 25.396-21.275 13.326-44.606 23.844-68.484 32.601-1.476-5.226-2.264-10.736-2.264-16.432 0-26.938 17.622-49.765 41.97-57.582 5.841-1.891 12.076-2.908 18.551-2.908 17.315.001 32.934 7.271 43.971 18.925z" fill="#87796f"/><path d="m114.064 100.642c-.234 0-.469-.055-.682-.164-.372-.19-.648-.526-.762-.928-1.54-5.448-2.32-11.114-2.32-16.839 0-27.037 17.285-50.751 43.011-59.01 6.107-1.977 12.503-2.98 19.01-2.98 17.215 0 33.218 6.887 45.061 19.393.277.292.425.684.41 1.086s-.191.782-.488 1.054c-10.007 9.119-21.433 17.718-33.959 25.559-19.49 12.207-41.982 22.916-68.764 32.737-.167.062-.342.092-.517.092zm58.257-76.921c-6.192 0-12.278.954-18.089 2.836-24.483 7.86-40.932 30.427-40.932 56.155 0 4.902.601 9.756 1.788 14.455 25.906-9.593 47.726-20.034 66.664-31.895 11.898-7.448 22.784-15.583 32.381-24.196-11.153-11.204-25.942-17.355-41.812-17.355z" fill="#3a312a"/><path d="m66.071 239.49h84.337v-27.28c0-16.62-13.46-30.08-30.1-30.08h-19.9v-16.857h-33.44v16.857h-19.89c-16.64 0-30.13 13.46-30.13 30.08v27.28h31.34z" fill="#f5e1c5"/><path d="m150.408 240.99h-84.337c-.828 0-1.5-.671-1.5-1.5s.672-1.5 1.5-1.5h82.837v-25.78c0-15.759-12.83-28.58-28.6-28.58h-19.9c-.828 0-1.5-.671-1.5-1.5v-15.356h-30.44v15.356c0 .829-.672 1.5-1.5 1.5h-19.89c-15.786 0-28.63 12.821-28.63 28.58v25.78h29.84c.828 0 1.5.671 1.5 1.5s-.672 1.5-1.5 1.5h-31.34c-.828 0-1.5-.671-1.5-1.5v-27.28c0-17.413 14.189-31.58 31.63-31.58h18.39v-15.356c0-.829.672-1.5 1.5-1.5h33.44c.828 0 1.5.671 1.5 1.5v15.356h18.4c17.424 0 31.6 14.167 31.6 31.58v27.28c0 .828-.672 1.5-1.5 1.5z" fill="#3a312a"/><path d="m66.071 239.49h84.339v-27.28c0-16.62-13.46-30.08-30.1-30.08h-22.04l-14.6 19.37-14.59-19.37h-22c-16.64 0-30.13 13.46-30.13 30.08v27.28h31.339z" fill="#8bbfd6"/><path d="m150.41 240.99h-84.339c-.828 0-1.5-.671-1.5-1.5s.672-1.5 1.5-1.5h82.839v-25.78c0-15.759-12.83-28.58-28.601-28.58h-21.291l-14.149 18.773c-.284.376-.728.597-1.198.597-.471 0-.915-.221-1.198-.598l-14.141-18.773h-21.252c-15.787 0-28.631 12.821-28.631 28.58v25.78h29.839c.828 0 1.5.671 1.5 1.5s-.672 1.5-1.5 1.5h-31.339c-.828 0-1.5-.671-1.5-1.5v-27.28c0-17.413 14.19-31.58 31.631-31.58h21.999c.471 0 .915.221 1.198.598l13.393 17.78 13.401-17.78c.284-.376.728-.597 1.198-.597h22.04c17.425 0 31.601 14.167 31.601 31.58v27.28c0 .828-.672 1.5-1.5 1.5z" fill="#3a312a"/><path d="m83.669 201.504-10.721 8.065-20.673-27.439 10.72-8.085z" fill="#8bbfd6"/><path d="m72.949 211.069c-.455 0-.904-.206-1.199-.597l-20.673-27.439c-.498-.662-.366-1.602.295-2.101l10.72-8.084c.317-.239.719-.344 1.112-.288.394.055.75.265.989.583l20.674 27.459c.239.318.343.718.287 1.112s-.266.75-.584.989l-10.721 8.064c-.269.204-.585.302-.9.302zm-18.573-28.645 18.868 25.045 8.324-6.261-18.868-25.061z" fill="#3a312a"/><path d="m115.081 182.13-20.673 27.439-10.739-8.065 20.692-27.459z" fill="#8bbfd6"/><path d="m94.407 211.069c-.313 0-.63-.098-.899-.301l-10.739-8.064c-.318-.239-.529-.595-.585-.99s.048-.794.287-1.113l20.692-27.459c.24-.318.596-.527.99-.582.393-.057.794.048 1.111.288l10.72 8.084c.661.499.793 1.439.295 2.101l-20.673 27.439c-.294.391-.744.597-1.199.597zm-8.636-9.862 8.34 6.263 18.869-25.046-8.324-6.278z" fill="#3a312a"/><path d="m41.338 240.996c-.828 0-1.5-.671-1.5-1.5v-21.557c0-.829.672-1.5 1.5-1.5s1.5.671 1.5 1.5v21.557c0 .829-.672 1.5-1.5 1.5z" fill="#3a312a"/><path d="m126.019 240.996c-.828 0-1.5-.671-1.5-1.5v-21.557c0-.829.672-1.5 1.5-1.5s1.5.671 1.5 1.5v21.557c0 .829-.672 1.5-1.5 1.5z" fill="#3a312a"/><path clip-rule="evenodd" d="m44.596 109.761c0 6.424-5.21 11.632-11.638 11.632-6.427 0-11.637-5.208-11.637-11.632s5.21-11.631 11.637-11.631c6.428-.001 11.638 5.207 11.638 11.631z" fill="#f6e2c6" fill-rule="evenodd"/><path d="m32.959 122.892c-7.244 0-13.138-5.891-13.138-13.131 0-7.241 5.893-13.131 13.138-13.131 7.244 0 13.138 5.891 13.138 13.131 0 7.241-5.894 13.131-13.138 13.131zm0-23.263c-5.59 0-10.138 4.545-10.138 10.131 0 5.587 4.548 10.131 10.138 10.131s10.138-4.545 10.138-10.131-4.548-10.131-10.138-10.131z" fill="#3a312a"/><path clip-rule="evenodd" d="m146.171 109.761c0 6.424-5.21 11.632-11.637 11.632s-11.638-5.208-11.638-11.632 5.21-11.631 11.638-11.631c6.427-.001 11.637 5.207 11.637 11.631z" fill="#f6e2c6" fill-rule="evenodd"/><path d="m134.533 122.892c-7.244 0-13.138-5.891-13.138-13.131 0-7.241 5.894-13.131 13.138-13.131s13.138 5.891 13.138 13.131c0 7.241-5.894 13.131-13.138 13.131zm0-23.263c-5.59 0-10.138 4.545-10.138 10.131 0 5.587 4.548 10.131 10.138 10.131s10.138-4.545 10.138-10.131-4.548-10.131-10.138-10.131z" fill="#3a312a"/><path d="m135.339 104.118c0 16.03-8.7 36.9-20.62 52.07-9.24 11.78-20.42 20.12-30.97 20.12-10.39 0-21.89-8.88-31.39-21.24-11.59-15.07-20.2-35.31-20.2-50.95 0-28.48 23.09-51.57 51.59-51.57 28.49 0 51.59 23.09 51.59 51.57z" fill="#f6e2c6"/><path d="m83.749 177.808c-10.043 0-21.918-7.955-32.579-21.826-12.46-16.201-20.511-36.559-20.511-51.864 0-29.263 23.816-53.07 53.09-53.07 29.273 0 53.09 23.807 53.09 53.07 0 15.759-8.415 37.057-20.94 52.997-10.467 13.343-21.885 20.693-32.15 20.693zm0-123.76c-27.62 0-50.09 22.461-50.09 50.07 0 14.685 7.807 34.326 19.89 50.036 10.089 13.126 21.096 20.654 30.2 20.654 9.188 0 20.046-7.124 29.789-19.545 12.143-15.453 20.301-36.006 20.301-51.145 0-27.609-22.47-50.07-50.09-50.07z" fill="#3a312a"/><path d="m70.567 103.532c0 2.78-2.254 5.033-5.035 5.033s-5.035-2.253-5.035-5.033c0-2.779 2.254-5.033 5.035-5.033 2.781.001 5.035 2.254 5.035 5.033z" fill="#3a312a"/><path d="m106.996 103.532c0 2.78-2.254 5.033-5.035 5.033s-5.035-2.253-5.035-5.033c0-2.779 2.254-5.033 5.035-5.033 2.78.001 5.035 2.254 5.035 5.033z" fill="#3a312a"/><path d="m64.142 118.495c0 3.579-3.884 6.481-8.674 6.481s-8.674-2.902-8.674-6.481 3.884-6.481 8.674-6.481c4.791 0 8.674 2.902 8.674 6.481z" fill="#f59689"/><path d="m120.698 118.495c0 3.579-3.883 6.481-8.674 6.481s-8.674-2.902-8.674-6.481 3.884-6.481 8.674-6.481 8.674 2.902 8.674 6.481z" fill="#f59689"/><path d="m83.744 147.439c-7.284 0-12.536-3.271-15.609-9.723-.357-.748-.038-1.643.709-1.999.752-.358 1.643-.039 2 .709 2.568 5.392 6.788 8.013 12.9 8.013 7.825 0 11.828-5.164 12.852-7.895.291-.776 1.152-1.169 1.931-.878.775.291 1.169 1.155.878 1.931-1.777 4.741-7.435 9.842-15.661 9.842z" fill="#3a312a"/><path d="m162.526 67.004h51.51l15.929-32.038-56.813-18.462-56.812 18.462 15.928 32.038h12.516z" fill="#eb6e7a"/><path d="m214.036 68.504h-51.511c-.828 0-1.5-.671-1.5-1.5s.672-1.5 1.5-1.5h50.581l14.741-29.648-54.695-17.774-54.695 17.774 14.741 29.648h11.586c.828 0 1.5.671 1.5 1.5s-.672 1.5-1.5 1.5h-12.516c-.569 0-1.09-.322-1.343-.832l-15.929-32.038c-.194-.391-.209-.847-.04-1.249s.504-.711.919-.846l56.813-18.462c.303-.098.625-.098.928 0l56.813 18.462c.415.135.75.444.919.846s.154.858-.04 1.249l-15.929 32.038c-.253.51-.774.832-1.343.832z" fill="#3a312a"/><path d="m188.658 37.821h-10.19v-10.19h-10.632v10.19h-10.19v10.632h10.19v10.19h10.632v-10.19h10.19z" fill="#f5e1c5"/><path d="m178.469 60.143h-10.633c-.828 0-1.5-.671-1.5-1.5v-8.689h-8.689c-.828 0-1.5-.671-1.5-1.5v-10.634c0-.829.672-1.5 1.5-1.5h8.689v-8.689c0-.829.672-1.5 1.5-1.5h10.633c.828 0 1.5.671 1.5 1.5v8.689h8.689c.828 0 1.5.671 1.5 1.5v10.633c0 .829-.672 1.5-1.5 1.5h-8.689v8.689c0 .829-.672 1.501-1.5 1.501zm-9.133-3h7.633v-8.689c0-.829.672-1.5 1.5-1.5h8.689v-7.634h-8.689c-.828 0-1.5-.671-1.5-1.5v-8.689h-7.633v8.689c0 .829-.672 1.5-1.5 1.5h-8.689v7.633h8.689c.828 0 1.5.671 1.5 1.5z" fill="#3a312a"/><path d="m84.341 41.171c-29.491 0-53.397 22.845-53.397 51.026 0 2.982.54 5.205 1.543 7.981.473 1.309 8.119-2.871 8.77-3.33 3.256-2.291 5.916-5.396 7.905-8.829.822-1.427 1.508-2.88 2.06-4.333 1.76-4.635 6.542-17.533 11.398-16.521 6.512 1.357 13.892 2.123 21.722 2.123s15.21-.767 21.722-2.123c4.856-1.012 9.638 11.886 11.398 16.521.552 1.453 1.237 2.906 2.06 4.333 3.285 5.679 8.833 11.086 15.583 12.069.017-.326.428-.437.736-.548 2.21-.802 1.9-5.574 1.9-7.345-.002-28.179-23.909-51.024-53.4-51.024z" fill="#87796f"/><path d="m32.929 101.909c-.242 0-.459-.027-.646-.086-.571-.18-1.011-.594-1.207-1.135-1.007-2.787-1.632-5.18-1.632-8.491 0-28.963 24.627-52.526 54.897-52.526s54.898 23.563 54.898 52.525l.006.575c.036 2.478.104 7.091-2.893 8.18-.002.001-.014.005-.028.01-.076.107-.167.205-.271.29-.326.267-.75.384-1.167.324-6.332-.923-12.562-5.709-16.664-12.803-.848-1.47-1.575-3.001-2.164-4.552l-.11-.292c-5.284-13.936-8.25-15.561-9.579-15.293-6.864 1.43-14.275 2.155-22.027 2.155-7.753 0-15.164-.725-22.027-2.155-1.327-.267-4.295 1.356-9.58 15.293l-.11.292c-.588 1.549-1.315 3.079-2.162 4.549-2.199 3.797-5.083 7.014-8.342 9.307-.062.043-6.337 3.833-9.192 3.833zm103.673-1.74v.004c0-.001 0-.002 0-.004zm-52.26-57.498c-28.616 0-51.897 22.217-51.897 49.526 0 2.546.437 4.498 1.16 6.636 1.767-.483 5.897-2.605 6.793-3.213 2.902-2.042 5.485-4.931 7.467-8.352.766-1.329 1.424-2.714 1.955-4.114l.11-.29c3.454-9.108 7.701-18.274 12.996-17.166 6.663 1.388 13.868 2.091 21.416 2.091 7.547 0 14.752-.704 21.416-2.091 5.296-1.117 9.542 8.058 12.995 17.166l.11.291c.532 1.401 1.19 2.786 1.958 4.116 3.476 6.011 8.564 10.144 13.739 11.202.278-.17.547-.264.697-.316.439-.159 1.051-1.028.988-5.341l-.007-.619c.001-27.309-23.28-49.526-51.896-49.526z" fill="#3a312a"/><path d="m106.038 82.647h32.391v-54.816l-.017-.007c-35.353-15.096-74.132-15.093-109.483.007v54.816h59.352z" fill="#89c4db"/><path d="m138.429 84.147h-32.391c-.828 0-1.5-.671-1.5-1.5s.672-1.5 1.5-1.5h30.891v-52.322c-34.38-14.404-72.122-14.404-106.5 0v52.322h57.853c.828 0 1.5.671 1.5 1.5s-.672 1.5-1.5 1.5h-59.353c-.828 0-1.5-.671-1.5-1.5v-54.816c0-.601.358-1.144.911-1.379 35.68-15.24 74.979-15.242 110.661-.007.553.236.928.786.928 1.387v54.816c0 .827-.672 1.499-1.5 1.499z" fill="#3a312a"/><path d="m99.185 45.821h-10.19v-10.19h-10.632v10.19h-10.19v10.632h10.19v10.19h10.632v-10.19h10.19z" fill="#f5e1c5"/><path d="m88.995 68.143h-10.633c-.828 0-1.5-.671-1.5-1.5v-8.689h-8.689c-.828 0-1.5-.671-1.5-1.5v-10.634c0-.829.672-1.5 1.5-1.5h8.689v-8.689c0-.829.672-1.5 1.5-1.5h10.633c.828 0 1.5.671 1.5 1.5v8.689h8.689c.828 0 1.5.671 1.5 1.5v10.633c0 .829-.672 1.5-1.5 1.5h-8.689v8.689c0 .829-.672 1.501-1.5 1.501zm-9.133-3h7.633v-8.689c0-.829.672-1.5 1.5-1.5h8.689v-7.634h-8.689c-.828 0-1.5-.671-1.5-1.5v-8.689h-7.633v8.689c0 .829-.672 1.5-1.5 1.5h-8.689v7.633h8.689c.828 0 1.5.671 1.5 1.5z" fill="#3a312a"/></g></svg>