<svg id="svg8" height="512" viewBox="0 0 111 111" width="512" xmlns="http://www.w3.org/2000/svg" xmlns:svg="http://www.w3.org/2000/svg"><g id="layer1"><g id="g970" stroke-linecap="round" stroke-linejoin="round" transform="matrix(.858 0 0 .858 7.907 3.907)"><g id="g45806" transform="translate(530.691 -85.657)"><path id="path25835" d="m-530.88249 95.656921c-1.91487 0-3.50779 1.593559-3.50779 3.507796v23.078173h-.52557c-2.73902 0-4.99607 2.25705-4.99607 4.99608v18.27537c0 2.73903 2.25705 4.99608 4.99607 4.99608h8.87129c5.56408 13.64364 18.88863 23.24199 34.55242 23.24199h32.60164c15.66378 0 28.98886-9.59835 34.55291-23.24199h8.87079c2.73902 0 4.99608-2.25705 4.99608-4.99608v-18.27537c0-2.73903-2.25706-4.99608-4.99608-4.99608h-.52504v-23.078173c0-1.914226-1.59295-3.507796-3.50779-3.507796s-3.50779 1.593583-3.50779 3.507796v23.078173h-1.33017c-5.56373-13.64433-18.88863-23.244054-34.55291-23.244054h-3.0665c-.38124-1.468485-1.67428-2.599843-3.24993-2.599843h-19.97035c-1.57562 0-2.86713 1.131358-3.24837 2.599843h-3.06649c-15.66429 0-28.98865 9.599724-34.55242 23.244054h-1.33014v-23.078173c0-1.914226-1.59295-3.507796-3.50779-3.507796zm38.32426 79.810629c-2.73902 0-4.99607 2.25672-4.99607 4.99608v10.527c0 2.73936 2.25671 4.99608 4.99607 4.99608h34.73432c2.73939 0 4.99607-2.25672 4.99607-4.99608v-10.527c0-2.73935-2.25703-4.99608-4.99607-4.99608z" stroke-width="3.32"/><path id="rect1699-8-2-9-4-1-1" d="m-419.5001 97.317881c1.02347 0 1.84742.823947 1.84742 1.847415v37.942674c0 1.02347-.82395 1.84741-1.84742 1.84741s-1.84741-.82394-1.84741-1.84741v-37.942674c0-1.023468.82394-1.847415 1.84741-1.847415z" fill="#f5f6e8" stroke-width=".213"/><path id="rect1699-8-6-0-5-8-5-4" d="m-530.88255 97.317881c-1.02347 0-1.84742.823947-1.84742 1.847415v37.942674c0 1.02347.82395 1.84741 1.84742 1.84741s1.84741-.82394 1.84741-1.84741v-37.942674c0-1.023468-.82394-1.847415-1.84741-1.847415z" fill="#f5f6e8" stroke-width=".213"/><path id="rect1699-33-4-0-1-7" d="m-428.98187 123.90257h13.51505c1.8481 0 3.33592 1.48782 3.33592 3.33592v18.27502c0 1.8481-1.48782 3.33592-3.33592 3.33592h-13.51505c-1.8481 0-3.33592-1.48782-3.33592-3.33592v-18.27502c0-1.8481 1.48782-3.33592 3.33592-3.33592z" fill="#7d8e9e" stroke-width=".385"/><path id="rect1699-33-3-7-3-3-0" d="m-492.55909 177.1269h34.73553c1.84821 0 3.33612 1.48791 3.33612 3.33612v10.52764c0 1.84821-1.48791 3.33612-3.33612 3.33612h-34.73553c-1.84821 0-3.33612-1.48791-3.33612-3.33612v-10.52764c0-1.84821 1.48791-3.33612 3.33612-3.33612z" fill="#aabfd0" stroke-width=".458"/><path id="rect1699-3-1-4-2-3-9" d="m-521.40078 123.90257h-13.51505c-1.8481 0-3.33592 1.48782-3.33592 3.33592v18.27502c0 1.8481 1.48782 3.33592 3.33592 3.33592h13.51505c1.8481 0 3.33592-1.48782 3.33592-3.33592v-18.27502c0-1.8481-1.48782-3.33592-3.33592-3.33592z" fill="#7d8e9e" stroke-width=".385"/><path id="rect1576-0-9-5-8-7" d="m-491.49297 100.65891h32.60331c19.78727 0 35.7171 15.92982 35.7171 35.71709s-15.92983 35.7171-35.7171 35.7171h-32.60331c-19.78727 0-35.71709-15.92983-35.71709-35.7171s15.92982-35.71709 35.71709-35.71709z" fill="#aabfd0" stroke-width=".665"/><path id="rect1576-0-6-2-2-6-5" d="m-488.62298 106.94713h26.86328c16.3036 0 29.42888 13.12528 29.42888 29.42888 0 16.30359-13.12528 29.42887-29.42888 29.42887h-26.86328c-16.3036 0-29.42888-13.12528-29.42888-29.42887 0-16.3036 13.12528-29.42888 29.42888-29.42888z" fill="#d0e2ee" stroke-width=".548"/><path id="rect1576-9-1-8-8-2-5-9" d="m-485.17654 98.060214h19.97045c.97306 0 1.75642.783363 1.75642 1.756419v7.520317c0 .97306-.78336 1.75642-1.75642 1.75642h-19.97045c-.97306 0-1.75642-.78336-1.75642-1.75642v-7.520317c0-.973056.78336-1.756419 1.75642-1.756419z" fill="#7d8e9e" stroke-width=".124"/></g><g id="g847" stroke-width="1.347"><path id="path36200-2-7-6-6-9-4-5-2" d="m34.300736 39.200511c-2.875778 0-5.824647.547867-7.977026 2.700232-1.052185 1.05242-1.052185 2.758462 0 3.810868 1.052406 1.052185 2.758462 1.052185 3.810868 0 .395441-.395428 2.244544-1.121147 4.166158-1.121147 1.921628 0 3.770731.725719 4.166172 1.121147 1.052406 1.052185 2.758462 1.052185 3.810868 0 1.052185-1.052406 1.052185-2.758448 0-3.810868-2.152379-2.152365-5.101248-2.700232-7.97704-2.700232z"/><path id="path36200-2-7-6-6-9-4-9-2-9" d="m76.699268 39.200511c-2.875778 0-5.824647.547867-7.977026 2.700232-1.052185 1.05242-1.052185 2.758462 0 3.810868 1.052406 1.052185 2.758462 1.052185 3.810868 0 .395441-.395428 2.244544-1.121147 4.166158-1.121147 1.921628 0 3.770731.725719 4.166172 1.121147 1.052406 1.052185 2.758462 1.052185 3.810868 0 1.052185-1.052406 1.052185-2.758448 0-3.810868-2.152379-2.152365-5.101248-2.700232-7.97704-2.700232z"/><path id="path36200-2-7-6-9-1-9-3-6" d="m45.924157 55.460933c-1.488398 0-2.694984 1.206586-2.694984 2.69497 0 6.155021 5.285054 10.477251 12.272158 10.477251 6.987118 0 12.269519-4.32223 12.269519-10.477251 0-1.488384-1.206585-2.69497-2.694983-2.69497s-2.69497 1.206586-2.69497 2.69497c0 3.648222-3.469526 5.094867-6.879566 5.087298-3.410026-.0069-6.882191-1.439076-6.882191-5.087298 0-1.488384-1.206585-2.69497-2.694983-2.69497z"/></g></g></g></svg>